<svg width="16" height="16" viewBox="0 0 16 16" fill="none" xmlns="http://www.w3.org/2000/svg">
<path d="M11.6667 12.6667H6C5.13458 12.6665 4.28626 12.4256 3.54985 11.971C2.81344 11.5164 2.21795 10.866 1.82992 10.0925C1.44188 9.31889 1.2766 8.45268 1.35253 7.59059C1.42846 6.7285 1.74262 5.90451 2.2599 5.2107C2.77718 4.51688 3.4772 3.98057 4.28174 3.6617C5.08627 3.34283 5.96363 3.25396 6.81577 3.40502C7.66791 3.55608 8.46125 3.94112 9.10716 4.51711C9.75306 5.09311 10.2261 5.83736 10.4733 6.66671H11.6667C12.4623 6.66671 13.2254 6.98278 13.788 7.54539C14.3506 8.108 14.6667 8.87106 14.6667 9.66671C14.6667 10.4624 14.3506 11.2254 13.788 11.788C13.2254 12.3506 12.4623 12.6667 11.6667 12.6667Z" stroke="#E2E2EB" stroke-width="1.33333" stroke-linecap="round" stroke-linejoin="round"/>
</svg>
