<svg width="16" height="16" viewBox="0 0 16 16" fill="none" xmlns="http://www.w3.org/2000/svg">
<path d="M2.66667 9.93272C2.17137 9.42666 1.79772 8.81453 1.57403 8.14268C1.35034 7.47083 1.28248 6.75688 1.37558 6.05492C1.46868 5.35296 1.72031 4.68139 2.1114 4.09108C2.5025 3.50077 3.0228 3.0072 3.6329 2.64775C4.24299 2.28831 4.92689 2.07242 5.63279 2.01644C6.33868 1.96046 7.04806 2.06585 7.70719 2.32463C8.36631 2.58341 8.95791 2.98879 9.43716 3.51008C9.91641 4.03136 10.2708 4.65488 10.4733 5.33339H11.6667C12.3103 5.33331 12.937 5.54027 13.454 5.92368C13.971 6.30709 14.351 6.84663 14.5379 7.46259C14.7247 8.07855 14.7085 8.73827 14.4916 9.3443C14.2747 9.95033 13.8686 10.4705 13.3333 10.8281" stroke="#E2E2EB" stroke-width="1.33333" stroke-linecap="round" stroke-linejoin="round"/>
<path d="M10.6667 9.33337V13.3334" stroke="#3377FF" stroke-width="1.33333" stroke-linecap="round" stroke-linejoin="round"/>
<path d="M5.33333 9.33337V13.3334" stroke="#3377FF" stroke-width="1.33333" stroke-linecap="round" stroke-linejoin="round"/>
<path d="M8 10.6666V14.6666" stroke="#3377FF" stroke-width="1.33333" stroke-linecap="round" stroke-linejoin="round"/>
</svg>
